<svg fill="#203a85" height="100" viewBox="0 0 116 34">
          <path
            d="M8.1,20.7H2.6l-1.4,4.1H0l4.2-12c0.1-0.2,0.2-0.3,0.5-0.3H6c0.2,0,0.4,0.1,0.5,0.3l4.2,12H9.5L8.1,20.7z M7.8,19.7L6,14.3
				c0-0.1-0.1-0.2-0.1-0.5c-0.1-0.2-0.1-0.4-0.2-0.5H5.1l-0.3,1L3,19.7H7.8z M14.8,24.8V12.4c1.5-0.1,3-0.2,4.3-0.2
				c1.8,0,3,0.5,3.7,1.4c0.7,0.9,1.1,2.6,1.1,4.9c0,2.4-0.4,4-1.1,4.9c-0.7,0.9-2,1.4-3.7,1.4C17.7,24.9,16.3,24.9,14.8,24.8z
				 M15.9,13.3v10.5c1.2,0,2.3,0,3.2,0c1.3,0,2.2-0.4,2.8-1.2c0.5-0.8,0.8-2.2,0.8-4.1c0-2-0.3-3.4-0.8-4.1c-0.5-0.8-1.4-1.2-2.8-1.2
				C18.9,13.3,17.8,13.3,15.9,13.3z M35.2,20.7h-5.5l-1.4,4.1h-1.2l4.2-12c0.1-0.2,0.2-0.3,0.5-0.3h1.4c0.2,0,0.4,0.1,0.5,0.3l4.2,12
				h-1.2L35.2,20.7z M34.8,19.7L33,14.3c0-0.1-0.1-0.2-0.1-0.5c-0.1-0.2-0.1-0.4-0.2-0.5h-0.5l-0.3,1L30,19.7H34.8z M49.8,17.6v7.1H49
				l-0.2-1.4C47.7,24.4,46.5,25,45,25c-1.4,0-2.5-0.5-3.1-1.5c-0.6-1-0.9-2.6-0.9-4.9c0-2.4,0.4-4.1,1.1-5c0.7-0.9,2-1.4,3.9-1.4
				c1.4,0,2.6,0.1,3.5,0.3l-0.1,0.9c-1.1-0.1-2.2-0.2-3.3-0.2c-1,0-1.8,0.1-2.3,0.4c-0.5,0.3-0.9,0.8-1.2,1.6c-0.3,0.8-0.4,1.9-0.4,3.3
				c0,1.9,0.2,3.3,0.7,4.1c0.5,0.8,1.3,1.2,2.4,1.2c0.4,0,0.9-0.1,1.3-0.2c0.4-0.2,0.8-0.3,1-0.5c0.3-0.2,0.6-0.4,1-0.7v-4.9H49.8z
				 M55.8,24.8h-1.2V12.4h1.2V24.8z M61.6,13.6c0.7-0.9,2-1.4,3.8-1.4c1.8,0,3.1,0.5,3.8,1.4c0.7,0.9,1.1,2.6,1.1,5
				c0,2.4-0.4,4.1-1.1,5c-0.7,0.9-2,1.4-3.8,1.4c-1.8,0-3.1-0.5-3.8-1.4c-0.7-0.9-1.1-2.6-1.1-5C60.5,16.2,60.9,14.5,61.6,13.6z
				 M68.2,14.4c-0.5-0.8-1.5-1.2-2.8-1.2c-1.3,0-2.3,0.4-2.8,1.2c-0.5,0.8-0.8,2.2-0.8,4.2c0,2,0.3,3.4,0.8,4.2
				c0.5,0.8,1.5,1.2,2.8,1.2c1.3,0,2.3-0.4,2.8-1.2c0.5-0.8,0.8-2.2,0.8-4.2C68.9,16.6,68.7,15.2,68.2,14.4z M85.9,19
				c0.6-2.7,0.5-4.7,1.4-7.6C89.6,3.4,97.7-1.9,106,0.7c7.8,2.5,12.1,11.4,8.9,19.1c-0.4,1-0.9,1.8-1.5,2.6c-2.8,4-8.4,6.1-13.7,7.1
				c3.8-2.6,7.2-5,9.4-8.2c1.3-1.8,2.1-3.6,1.9-3.7c-0.3-0.1-1.3,2-2.5,3.5c-4.3,5.1-13.1,7.5-18.2,8.6c-6.1,1.1-9.8,1.9-13.6,4.2
				C81.6,30.2,84.7,25.3,85.9,19z"
          ></path>
        </svg>